<?xml version="1.0" standalone="no"?>
<!DOCTYPE svg PUBLIC "-//W3C//DTD SVG 20010904//EN"
 "http://www.w3.org/TR/2001/REC-SVG-20010904/DTD/svg10.dtd">
<svg version="1.0" xmlns="http://www.w3.org/2000/svg"
 width="640.000000pt" height="640.000000pt" viewBox="0 0 640.000000 640.000000"
 preserveAspectRatio="xMidYMid meet">
<metadata>
Created by potrace 1.11, written by Peter Selinger 2001-2013
</metadata>
<g transform="translate(0.000000,640.000000) scale(0.100000,-0.100000)"
fill="#000000" stroke="none">
<path d="M2961 6328 c-22 -28 -28 -30 -68 -24 l-43 6 0 -44 c0 -34 -7 -52 -27
-76 l-27 -32 32 -27 c27 -22 32 -33 32 -68 l0 -43 42 0 c32 0 49 -6 71 -27
l29 -28 27 33 c22 26 35 32 67 32 49 0 66 10 54 30 -17 27 -11 59 15 76 29 19
33 50 7 59 -23 7 -42 46 -42 85 0 28 -2 30 -40 30 -31 0 -47 6 -64 25 -29 32
-35 31 -65 -7z m84 -113 c40 -39 31 -89 -18 -110 -41 -17 -83 -2 -95 33 -25
76 58 133 113 77z"/>
<path d="M2803 5995 c-29 -12 -33 -19 -33 -52 0 -43 -28 -96 -61 -113 -12 -7
-42 -15 -66 -19 -41 -5 -47 -10 -60 -44 l-16 -38 37 -38 c54 -55 50 -117 -12
-183 -24 -26 -24 -29 -11 -65 13 -32 19 -38 47 -39 79 -4 132 -56 132 -131 0
-35 4 -41 36 -56 l36 -18 35 31 c69 61 124 62 192 4 39 -34 41 -34 75 -20 31
13 36 20 36 46 0 43 26 95 57 115 14 10 46 20 71 24 42 6 48 10 60 44 14 36
14 38 -12 62 -31 28 -46 64 -46 107 0 23 10 40 40 68 l40 37 -15 36 c-11 26
-23 38 -43 43 -89 19 -133 60 -140 132 -4 47 -6 50 -43 62 -37 12 -40 12 -74
-18 -62 -55 -104 -55 -179 3 -26 19 -47 35 -49 35 -1 -1 -17 -7 -34 -15z m249
-248 c61 -37 83 -73 82 -137 -1 -99 -54 -160 -149 -168 -117 -10 -206 93 -176
205 10 37 54 88 96 111 34 19 107 14 147 -11z"/>
<path d="M5177 5730 c-221 -21 -533 -110 -839 -241 -139 -59 -338 -156 -338
-163 0 -3 53 17 119 44 561 227 980 248 1183 61 238 -219 135 -713 -275 -1326
-229 -341 -430 -580 -801 -950 l-251 -250 -5 510 -5 510 -150 0 c-175 -1 -226
-13 -306 -77 -52 -41 -187 -204 -265 -321 l-46 -68 -118 179 c-183 277 -205
290 -475 276 l-170 -9 -3 -614 -2 -614 116 -179 c64 -98 120 -178 125 -178 5
0 40 20 79 45 l70 45 2 392 3 393 73 -94 c101 -130 174 -243 247 -384 61 -116
63 -119 77 -96 8 13 45 78 82 144 63 112 209 338 255 395 l21 25 0 -307 0
-307 -107 -84 c-976 -761 -1980 -1191 -2478 -1062 -255 67 -364 271 -310 581
43 243 215 613 421 902 25 35 44 66 41 68 -8 8 -224 -285 -319 -431 -272 -421
-410 -758 -425 -1036 -10 -190 28 -309 132 -413 374 -374 1522 -8 2756 879
405 291 742 573 1127 942 106 102 194 184 196 182 44 -59 537 -760 596 -849
72 -108 84 -132 88 -176 5 -66 -10 -113 -51 -151 -46 -43 -1091 -787 -1418
-1009 -125 -85 -143 -94 -184 -94 -53 0 -89 16 -126 57 -15 15 -106 141 -204
278 -98 138 -185 258 -194 267 -15 15 -26 10 -151 -69 -371 -233 -781 -432
-1190 -578 -158 -56 -179 -69 -95 -60 291 32 653 121 1021 251 84 30 156 54
162 54 5 0 83 -105 173 -232 216 -309 395 -553 442 -605 136 -148 388 -194
568 -102 129 65 1792 1249 1842 1311 127 157 153 378 64 548 -30 57 -227 342
-567 820 -331 466 -470 666 -470 674 0 4 47 63 105 131 403 479 706 983 810
1348 38 134 48 196 48 307 1 163 -39 273 -133 366 -116 116 -319 167 -573 144z
m-354 -4376 c25 -8 66 -34 92 -56 147 -129 147 -337 0 -466 -148 -130 -386
-78 -475 103 -20 40 -25 65 -25 130 0 96 25 156 92 222 78 76 209 104 316 67z"/>
<path d="M2275 5418 c-110 -78 -414 -292 -675 -476 -559 -394 -610 -432 -677
-506 -149 -163 -161 -387 -33 -606 34 -58 314 -456 1084 -1538 114 -160 212
-292 217 -292 15 0 349 230 349 241 0 9 -77 119 -520 744 -336 474 -606 860
-621 887 -6 12 -9 47 -7 79 8 107 -79 39 1225 959 144 102 260 187 257 191 -2
3 -29 16 -61 27 -154 57 -297 229 -319 385 -4 26 -9 47 -13 47 -3 0 -96 -64
-206 -142z m39 -323 c20 -8 36 -17 36 -19 0 -8 -361 -270 -485 -353 -165 -110
-160 -108 -179 -78 -16 24 -15 25 45 75 98 82 246 191 359 266 144 96 185 123
186 123 1 1 18 -6 38 -14z"/>
<path d="M3472 5347 c-39 -70 -143 -166 -220 -202 -34 -17 -62 -33 -62 -36 0
-4 55 -82 122 -175 67 -93 281 -394 475 -669 195 -275 358 -502 364 -503 11
-4 11 -4 167 188 244 300 416 560 566 855 75 147 179 390 174 405 -2 5 -44
-52 -94 -128 -172 -258 -365 -501 -543 -685 -58 -59 -108 -106 -112 -105 -9 3
-81 103 -409 568 -320 454 -382 540 -391 540 -4 0 -20 -24 -37 -53z"/>
</g>
</svg>
