<?xml version="1.0" encoding="utf-8"?>
<!-- Generator: Adobe Illustrator 16.0.4, SVG Export Plug-In . SVG Version: 6.00 Build 0)  -->
<!DOCTYPE svg PUBLIC "-//W3C//DTD SVG 1.1//EN" "http://www.w3.org/Graphics/SVG/1.1/DTD/svg11.dtd">
<svg version="1.1" xmlns="http://www.w3.org/2000/svg" xmlns:xlink="http://www.w3.org/1999/xlink" x="0px" y="0px" width="142px"
	 height="160px" viewBox="0 0 142 160" enable-background="new 0 0 142 160" xml:space="preserve">
<g id="Logo">
	<g id="Icon">
		<g id="Bottom">
			<defs>
				<path id="SVGID_1_" d="M101.311,134.995c-0.895-4.22,1.801-8.368,6.022-9.262c4.221-0.896,8.367,1.801,9.263,6.021
					c0.894,4.221-1.802,8.367-6.023,9.263c-0.546,0.115-1.091,0.172-1.628,0.172C105.333,141.189,102.089,138.669,101.311,134.995
					 M90.068,27.289c16.071-7.265,29.098-8.658,34.377-2.378c8.649,10.288-6.537,37.504-34.277,62.678V71.44v-9.488H83.95
					c-1.157,0-2.295,0.265-3.373,0.767c-1.339,0.624-2.587,1.615-3.662,2.934c-2.427,2.978-5.475,6.883-5.93,8.25
					c0,0-3.087-5.131-5.666-8.67c-1.087-1.49-2.454-2.491-3.926-2.916c-0.619-0.178-1.256-0.257-1.899-0.224l-7.693,0.396v9.119
					v16.385v4.981l5.921,9.07l3.685-2.363V79.81c1.198,1.34,2.428,2.852,3.658,4.556c2.12,2.936,4.236,6.434,6.175,10.583
					c0,0,2.15-4.361,5.428-9.395c1.174-1.803,2.492-3.69,3.909-5.495v15.733c-30.523,24.607-61.613,35.923-70.544,25.299
					c-5.606-6.669-1.195-20.455,10.156-36.184c-16.32,20.336-23.42,38.61-16.48,46.867c10.387,12.355,48.286-2.409,84.65-32.979
					c6.476-5.443,12.461-11.021,17.875-16.581c5.5,7.948,11.407,15.624,16.64,23.762c1.912,2.496,0.553,5.913-2.083,7.225
					c-12.143,8.638-24.211,17.407-36.54,25.786c-1.825,1.239-4.311,0.788-5.59-1.01c-3.304-4.638-6.617-9.286-9.967-13.892
					c-11.496,7.769-24.056,13.729-37.201,18.081c10.813-0.944,21.261-4.174,31.393-7.948c4.775,6.737,9.375,13.636,14.431,20.19
					c3.786,5.218,11.815,6.21,16.896,2.306c14.089-9.641,27.937-19.649,41.825-29.579c5.263-3.621,6.731-11.484,3.113-16.768
					c-8.212-12.254-17.1-24.062-25.413-36.264c19.936-22.741,29.292-43.949,21.657-53.031c-2.49-2.963-6.563-4.366-11.815-4.366
					C114.986,16.708,103.232,20.462,90.068,27.289"/>
			</defs>
			<clipPath id="SVGID_2_">
				<use xlink:href="#SVGID_1_"  overflow="visible"/>
			</clipPath>
			
				<linearGradient id="SVGID_3_" gradientUnits="userSpaceOnUse" x1="-122.707" y1="378.6089" x2="-121.7066" y2="378.6089" gradientTransform="matrix(-165.8012 -46.615 -46.615 165.8012 -2525.4072 -68377.9688)">
				<stop  offset="0" style="stop-color:#315EAC"/>
				<stop  offset="0.5" style="stop-color:#38C1F1"/>
				<stop  offset="1" style="stop-color:#315EAC"/>
			</linearGradient>
			<polygon clip-path="url(#SVGID_2_)" fill="url(#SVGID_3_)" points="133.518,197.965 -39.526,149.315 8.686,-22.164 
				181.729,26.487 			"/>
		</g>
		<g id="Top">
			<defs>
				<path id="SVGID_4_" d="M53.184,22.357c-0.094-0.441-0.095-0.877-0.144-1.317c-11.048,7.753-22.006,15.656-33.088,23.352
					c-3.523,2.586-7.756,5.334-8.499,9.999c-1.271,4.679,1.223,9.235,3.902,12.89c10.141,14.237,20.179,28.532,30.356,42.745
					c2.974-1.946,5.914-3.94,8.858-5.954c-9.224-13.222-18.731-26.261-27.896-39.525c-2.441-2.534-0.762-6.41,2.008-7.835
					c11.415-8.052,22.774-16.183,34.219-24.192C58.162,31.251,54.271,27.485,53.184,22.357 M33.61,44.658
					c-0.265-0.349-0.804-1.06-1.07-1.409c4.806-4.139,10.036-7.881,15.487-11.134c0.526,0.236,1.606,0.725,2.132,0.961
					C44.731,37.046,39.409,41.212,33.61,44.658 M98.764,53.111c7.284-7.113,13.452-15.245,18.87-23.83
					c-4.928,13.701-13.28,25.906-22.807,36.83c-7.859-10.966-15.452-22.137-23.465-32.993c-0.166-0.345-0.373-0.635-0.595-0.902
					c3.639-1.267,6.464-3.954,7.923-7.327C85.497,34.206,91.97,43.778,98.764,53.111"/>
			</defs>
			<clipPath id="SVGID_5_">
				<use xlink:href="#SVGID_4_"  overflow="visible"/>
			</clipPath>
			
				<linearGradient id="SVGID_6_" gradientUnits="userSpaceOnUse" x1="-122.707" y1="378.6089" x2="-121.7066" y2="378.6089" gradientTransform="matrix(-165.8012 -46.615 -46.615 165.8012 -2525.4072 -68377.9688)">
				<stop  offset="0" style="stop-color:#555657"/>
				<stop  offset="0.5" style="stop-color:#9EA0A2"/>
				<stop  offset="1" style="stop-color:#545556"/>
			</linearGradient>
			<polygon clip-path="url(#SVGID_5_)" fill="url(#SVGID_6_)" points="133.518,197.965 -39.526,149.315 8.686,-22.164 
				181.729,26.487 			"/>
		</g>
		<g id="Large_Gear">
			<defs>
				<path id="SVGID_7_" d="M61.498,21.985c-0.738-1.152-0.582-2.564-0.289-3.822c0.901-1.414,2.362-2.713,4.154-2.546
					c1.815-0.052,3.205,1.282,4.077,2.739c0.254,1.594,0.159,3.418-1.12,4.578c-0.785,0.835-1.873,1.227-2.969,1.227
					C63.809,24.162,62.25,23.388,61.498,21.985 M60.488,10.415c-0.122,1.068-0.013,2.291-0.796,3.153
					c-0.843,1.116-2.292,1.465-3.623,1.366c-0.258,0.585-0.506,1.171-0.749,1.761c0.558,0.542,1.1,1.098,1.631,1.669l0.093,0.014
					c0.573,1.755-0.311,3.559-1.783,4.538c0.232,0.646,0.469,1.292,0.712,1.939c2.494-0.791,4.755,1.779,4.125,4.19
					c0.564,0.276,1.13,0.543,1.704,0.814c0.975-1.109,2.38-2.22,3.958-1.8c1.121,0.163,1.858,1.113,2.608,1.871
					c0.617-0.243,1.234-0.493,1.852-0.741c-0.608-2.2,1.346-4.577,3.626-4.323c1.042,0.169,0.954-1.283,1.405-1.884
					c-1.666-0.888-2.431-2.951-1.509-4.655c0.589-0.368,1.107-0.828,1.629-1.278c-0.259-0.603-0.513-1.201-0.768-1.798
					c-2.349,0.21-4.883-2.006-4.112-4.486c-0.613-0.278-1.223-0.552-1.831-0.82c-0.833,0.879-1.799,1.891-3.109,1.852
					c-1.438,0.099-2.504-0.988-3.417-1.936C61.584,10.043,61.033,10.227,60.488,10.415"/>
			</defs>
			<clipPath id="SVGID_8_">
				<use xlink:href="#SVGID_7_"  overflow="visible"/>
			</clipPath>
			
				<linearGradient id="SVGID_9_" gradientUnits="userSpaceOnUse" x1="-121.6665" y1="378.3062" x2="-122.8529" y2="378.6396" gradientTransform="matrix(20.1108 0 0 -20.1108 2524.0701 7631.2563)">
				<stop  offset="0" style="stop-color:#315EAC"/>
				<stop  offset="0.5" style="stop-color:#38C1F1"/>
				<stop  offset="1" style="stop-color:#315EAC"/>
			</linearGradient>
			<rect x="55.261" y="9.86" clip-path="url(#SVGID_8_)" fill="url(#SVGID_9_)" width="20.11" height="20.069"/>
		</g>
		<g id="Small_Gear">
			<defs>
				<path id="SVGID_10_" d="M64.215,6.727c-0.642-1.084,0.15-2.601,1.379-2.763c1.414-0.326,2.833,1.471,2.032,2.737
					c-0.306,0.688-1.025,1.042-1.738,1.042C65.198,7.743,64.514,7.411,64.215,6.727 M64.623,2.433
					c-0.475,0.232-1.004,0.158-1.526,0.084c-0.258-0.036-0.515-0.072-0.76-0.072c0.38,1.411-0.112,2.725-1.274,3.584
					c0.586,0.47,1.17,0.95,1.714,1.482c-0.148,0.653-0.202,1.311-0.158,1.983c1.066-0.254,2.322-0.35,2.881,0.818
					c0.859,0.984,1.291-0.987,2.055-1.209c0.767,0.029,1.555,0.162,2.275-0.186c-0.141-0.277-0.427-0.831-0.567-1.104
					c0.085-0.252,0.25-0.758,0.331-1.01c0.239-0.167,0.712-0.501,0.951-0.668c0.017-0.181,0.054-0.54,0.072-0.72
					c-1.56-0.4-1.526-1.936-1.473-3.24c-1.311,0.784-2.583-0.09-3.196-1.27C65.505,1.417,65.097,1.951,64.623,2.433"/>
			</defs>
			<clipPath id="SVGID_11_">
				<use xlink:href="#SVGID_10_"  overflow="visible"/>
			</clipPath>
			
				<linearGradient id="SVGID_12_" gradientUnits="userSpaceOnUse" x1="-121.7163" y1="378.2222" x2="-122.9263" y2="378.5623" gradientTransform="matrix(9.5531 0 0 -9.5531 1234.3898 3620.5762)">
				<stop  offset="0" style="stop-color:#315EAC"/>
				<stop  offset="0.5" style="stop-color:#38C1F1"/>
				<stop  offset="1" style="stop-color:#315EAC"/>
			</linearGradient>
			<rect x="61.062" y="0.549" clip-path="url(#SVGID_11_)" fill="url(#SVGID_12_)" width="9.554" height="10.391"/>
		</g>
	</g>
</g>
</svg>
