<?xml version="1.0" encoding="utf-8"?>
<!-- Generator: Adobe Illustrator 16.0.4, SVG Export Plug-In . SVG Version: 6.00 Build 0)  -->
<!DOCTYPE svg PUBLIC "-//W3C//DTD SVG 1.1//EN" "http://www.w3.org/Graphics/SVG/1.1/DTD/svg11.dtd">
<svg version="1.1" id="Layer_1" xmlns="http://www.w3.org/2000/svg" xmlns:xlink="http://www.w3.org/1999/xlink" x="0px" y="0px"
	 width="483px" height="160px" viewBox="0 0 483 160" enable-background="new 0 0 483 160" xml:space="preserve">
<g id="Logo">
	<g id="Molbie">
		<path fill="#315EAB" d="M482.562,84.121L422.008,102v2.246c0,3.535,1.349,6.109,4.043,7.727c1.855,0.959,5.062,1.438,9.613,1.438
			h46.719V125h-49.684c-8.566,0-14.885-1.287-18.957-3.863c-5.152-3.055-7.728-7.906-7.728-14.555V74.597
			c0-11.439,8.414-17.16,25.246-17.16h27.763c15.69,0,23.539,6.08,23.539,18.238V84.121z M466.391,77.562v-0.988
			c0-5.15-4.192-7.727-12.577-7.727h-17.431c-9.703,0-14.555,2.906-14.555,8.715V90.77L466.391,77.562z"/>
		<rect x="368.102" y="57.437" fill="#315EAB" width="15.812" height="67.562"/>
		<rect x="368.82" y="35.335" fill="#545556" width="15.094" height="11.77"/>
		<path fill="#315EAB" d="M289.398,35.246v22.371h37.733c7.367,0,13.191,1.633,17.476,4.896c4.28,3.265,6.424,7.562,6.424,12.893
			v31.535c0,12.039-8.027,18.059-24.078,18.059h-27.762c-7.129,0-13.179-1.467-18.148-4.402c-4.973-2.934-7.457-7.604-7.457-14.016
			V35.246H289.398z M335.219,104.156V78.46c0-6.289-4.282-9.434-12.848-9.434h-29.109c-2.575,0-3.862,0.959-3.862,2.875v32.883
			c0,5.75,4.61,8.625,13.836,8.625h19.137c4.791,0,8.266-0.898,10.422-2.695C334.41,109.636,335.219,107.451,335.219,104.156z"/>
		<path fill="#315EAB" d="M254.09,125h-15.812V35.156h15.812V125z"/>
		<path fill="#315EAB" d="M218.152,108.289c0,5.75-2.576,10.152-7.728,13.207c-3.653,2.336-9.164,3.504-16.53,3.504h-27.402
			c-8.387,0-14.66-1.496-18.822-4.492c-4.164-2.994-6.244-7.066-6.244-12.219V74.597c0-5.869,2.636-10.422,7.906-13.656
			c3.832-2.336,9.553-3.504,17.16-3.504h27.402c7.604,0,13.176,1.168,16.711,3.504c5.03,3.055,7.547,7.607,7.547,13.656V108.289
			L218.152,108.289z M202.34,105.145V77.742c0-3.114-1.229-5.391-3.684-6.828c-1.978-1.377-5.031-2.066-9.164-2.066h-18.777
			c-4.312,0-7.518,0.689-9.612,2.066c-2.576,1.438-3.863,3.714-3.863,6.828v27.223c0,2.936,1.287,5.121,3.863,6.559
			c1.977,1.259,4.79,1.888,8.444,1.888h21.023c3.533,0,6.229-0.629,8.086-1.888C201.111,110.085,202.34,107.96,202.34,105.145z"/>
		<path fill="#315EAB" d="M123.906,125.449h-17.07V54.742l-31.535,62.98c-3.055,6.17-7.338,9.254-12.848,9.254
			c-3.295,0-5.99-0.898-8.086-2.695c-1.258-1.197-2.605-3.203-4.043-6.021L18.07,54.741v70.707H1V47.195
			c0-3.414,1.348-6.244,4.043-8.49c2.695-2.246,6.438-3.369,11.23-3.369c7.247,0,12.219,2.785,14.914,8.355l31.086,63.7
			l31.625-63.79c2.814-5.629,7.727-8.445,14.734-8.445c4.91,0,8.684,1.154,11.32,3.459c2.635,2.307,3.953,5.256,3.953,8.85
			L123.906,125.449L123.906,125.449z"/>
	</g>
</g>
</svg>
